<svg width="190" height="50" viewBox="0 0 190 50" fill="none" xmlns="http://www.w3.org/2000/svg">
<path d="M40 11V39H8V11H40ZM40 7H8C5.78 7 4 8.78 4 11V39C4 41.22 5.78 43 8 43H40C42.22 43 44 41.22 44 39V11C44 8.78 42.22 7 40 7ZM36 31H12V35H36V31ZM20 15H12V27H20V15ZM24 19H36V15H24V19ZM36 23H24V27H36V23Z" fill="#222222"/>
<path d="M50.1584 36V19.9184H54.3232L54.4752 25.0864L53.7456 24.0224C53.9888 23.1915 54.384 22.4416 54.9312 21.7728C55.4784 21.0837 56.1168 20.5467 56.8464 20.1616C57.5963 19.7765 58.3765 19.584 59.1872 19.584C59.5317 19.584 59.8661 19.6144 60.1904 19.6752C60.5147 19.736 60.7883 19.8069 61.0112 19.888L59.856 24.6304C59.6128 24.5088 59.3189 24.4075 58.9744 24.3264C58.6299 24.2251 58.2752 24.1744 57.9104 24.1744C57.424 24.1744 56.968 24.2656 56.5424 24.448C56.1371 24.6101 55.7824 24.8533 55.4784 25.1776C55.1744 25.4816 54.9312 25.8464 54.7488 26.272C54.5867 26.6976 54.5056 27.1637 54.5056 27.6704V36H50.1584ZM70.4357 36.304C68.6927 36.304 67.1727 35.9493 65.8757 35.24C64.5786 34.5307 63.5653 33.5579 62.8357 32.3216C62.1061 31.0853 61.7413 29.6667 61.7413 28.0656C61.7413 26.8293 61.9439 25.6944 62.3493 24.6608C62.7546 23.6272 63.3221 22.7355 64.0517 21.9856C64.7813 21.2155 65.6426 20.6277 66.6357 20.2224C67.649 19.7968 68.7434 19.584 69.9189 19.584C71.0133 19.584 72.0266 19.7867 72.9589 20.192C73.8911 20.5771 74.6917 21.1344 75.3605 21.864C76.0495 22.5733 76.5765 23.4144 76.9413 24.3872C77.3061 25.36 77.4682 26.424 77.4277 27.5792L77.3973 28.9168H64.4773L63.7781 26.272H73.8405L73.3541 26.8192V26.1504C73.3135 25.6032 73.1311 25.1067 72.8069 24.6608C72.5029 24.2149 72.1077 23.8704 71.6213 23.6272C71.1349 23.384 70.5877 23.2624 69.9797 23.2624C69.0879 23.2624 68.3279 23.4347 67.6997 23.7792C67.0917 24.1237 66.6255 24.6304 66.3013 25.2992C65.977 25.968 65.8149 26.7787 65.8149 27.7312C65.8149 28.704 66.0175 29.5451 66.4229 30.2544C66.8485 30.9637 67.4362 31.5211 68.1861 31.9264C68.9562 32.3115 69.8581 32.504 70.8917 32.504C71.601 32.504 72.2495 32.3925 72.8373 32.1696C73.425 31.9467 74.0533 31.5616 74.7221 31.0144L76.7893 33.9024C76.2015 34.4293 75.553 34.8752 74.8437 35.24C74.1343 35.5845 73.4047 35.848 72.6549 36.0304C71.905 36.2128 71.1653 36.304 70.4357 36.304ZM81.2258 36V14.72H90.2546C91.5111 14.72 92.646 15.024 93.6594 15.632C94.693 16.2197 95.5036 17.0304 96.0914 18.064C96.6994 19.0976 97.0034 20.2629 97.0034 21.56C97.0034 22.8773 96.6994 24.0629 96.0914 25.1168C95.5036 26.1707 94.693 27.0117 93.6594 27.64C92.646 28.248 91.5111 28.552 90.2546 28.552H85.7858V36H81.2258ZM85.725 24.448H89.7378C90.2242 24.448 90.6599 24.3264 91.045 24.0832C91.43 23.8197 91.734 23.4752 91.957 23.0496C92.2002 22.624 92.3218 22.1376 92.3218 21.5904C92.3218 21.0432 92.2002 20.5669 91.957 20.1616C91.734 19.736 91.43 19.4117 91.045 19.1888C90.6599 18.9456 90.2242 18.824 89.7378 18.824H85.725V24.448ZM100.479 36V19.9184H104.644L104.796 25.0864L104.066 24.0224C104.309 23.1915 104.704 22.4416 105.252 21.7728C105.799 21.0837 106.437 20.5467 107.167 20.1616C107.917 19.7765 108.697 19.584 109.508 19.584C109.852 19.584 110.186 19.6144 110.511 19.6752C110.835 19.736 111.109 19.8069 111.332 19.888L110.176 24.6304C109.933 24.5088 109.639 24.4075 109.295 24.3264C108.95 24.2251 108.596 24.1744 108.231 24.1744C107.744 24.1744 107.288 24.2656 106.863 24.448C106.457 24.6101 106.103 24.8533 105.799 25.1776C105.495 25.4816 105.252 25.8464 105.069 26.272C104.907 26.6976 104.826 27.1637 104.826 27.6704V36H100.479ZM114.416 36V14.72H123.658C125.077 14.72 126.272 14.9328 127.245 15.3584C128.238 15.7637 128.988 16.3616 129.495 17.152C130.001 17.9424 130.255 18.8848 130.255 19.9792C130.255 21.1952 129.951 22.2085 129.343 23.0192C128.735 23.8299 127.863 24.3872 126.728 24.6912L126.698 24.0832C127.63 24.3061 128.451 24.6709 129.16 25.1776C129.87 25.6843 130.417 26.3125 130.802 27.0624C131.187 27.8123 131.38 28.6635 131.38 29.616C131.38 30.6699 131.207 31.6021 130.863 32.4128C130.518 33.2032 130.012 33.8619 129.343 34.3888C128.674 34.9157 127.884 35.3211 126.972 35.6048C126.08 35.8683 125.077 36 123.962 36H114.416ZM118.794 32.048H123.78C124.428 32.048 124.975 31.9568 125.421 31.7744C125.887 31.5717 126.242 31.2677 126.485 30.8624C126.728 30.4571 126.85 29.9808 126.85 29.4336C126.85 28.9067 126.718 28.4608 126.455 28.096C126.191 27.7312 125.816 27.4576 125.33 27.2752C124.864 27.0725 124.296 26.9712 123.628 26.9712H118.794V32.048ZM118.794 23.3536H123.111C123.658 23.3536 124.134 23.2523 124.54 23.0496C124.945 22.8469 125.249 22.5733 125.452 22.2288C125.675 21.8843 125.786 21.4789 125.786 21.0128C125.786 20.2629 125.543 19.6853 125.056 19.28C124.57 18.8747 123.84 18.672 122.868 18.672H118.794V23.3536ZM142.517 36.304C140.774 36.304 139.254 35.9493 137.957 35.24C136.66 34.5307 135.647 33.5579 134.917 32.3216C134.187 31.0853 133.823 29.6667 133.823 28.0656C133.823 26.8293 134.025 25.6944 134.431 24.6608C134.836 23.6272 135.403 22.7355 136.133 21.9856C136.863 21.2155 137.724 20.6277 138.717 20.2224C139.73 19.7968 140.825 19.584 142 19.584C143.095 19.584 144.108 19.7867 145.04 20.192C145.972 20.5771 146.773 21.1344 147.442 21.864C148.131 22.5733 148.658 23.4144 149.023 24.3872C149.387 25.36 149.549 26.424 149.509 27.5792L149.479 28.9168H136.559L135.859 26.272H145.922L145.435 26.8192V26.1504C145.395 25.6032 145.212 25.1067 144.888 24.6608C144.584 24.2149 144.189 23.8704 143.703 23.6272C143.216 23.384 142.669 23.2624 142.061 23.2624C141.169 23.2624 140.409 23.4347 139.781 23.7792C139.173 24.1237 138.707 24.6304 138.383 25.2992C138.058 25.968 137.896 26.7787 137.896 27.7312C137.896 28.704 138.099 29.5451 138.504 30.2544C138.93 30.9637 139.517 31.5211 140.267 31.9264C141.037 32.3115 141.939 32.504 142.973 32.504C143.682 32.504 144.331 32.3925 144.919 32.1696C145.506 31.9467 146.135 31.5616 146.803 31.0144L148.871 33.9024C148.283 34.4293 147.634 34.8752 146.925 35.24C146.216 35.5845 145.486 35.848 144.736 36.0304C143.986 36.2128 143.247 36.304 142.517 36.304ZM158.718 36.304C157.381 36.304 156.175 35.9392 155.101 35.2096C154.026 34.48 153.175 33.4869 152.547 32.2304C151.919 30.9739 151.605 29.5349 151.605 27.9136C151.605 26.2923 151.919 24.8635 152.547 23.6272C153.196 22.3707 154.067 21.3877 155.161 20.6784C156.256 19.9488 157.502 19.584 158.901 19.584C159.691 19.584 160.41 19.7056 161.059 19.9488C161.728 20.1717 162.305 20.4859 162.792 20.8912C163.298 21.2965 163.724 21.7627 164.069 22.2896C164.413 22.8165 164.656 23.384 164.798 23.992L163.886 23.84V19.9184H168.173V36H163.825V32.1392L164.798 32.048C164.636 32.6155 164.373 33.1525 164.008 33.6592C163.643 34.1659 163.187 34.6219 162.64 35.0272C162.113 35.4123 161.515 35.7264 160.846 35.9696C160.177 36.1925 159.468 36.304 158.718 36.304ZM159.904 32.5648C160.714 32.5648 161.424 32.3723 162.032 31.9872C162.64 31.6021 163.106 31.0651 163.43 30.376C163.775 29.6667 163.947 28.8459 163.947 27.9136C163.947 27.0016 163.775 26.2011 163.43 25.512C163.106 24.8229 162.64 24.2859 162.032 23.9008C161.424 23.4955 160.714 23.2928 159.904 23.2928C159.113 23.2928 158.414 23.4955 157.806 23.9008C157.218 24.2859 156.752 24.8229 156.408 25.512C156.063 26.2011 155.891 27.0016 155.891 27.9136C155.891 28.8459 156.063 29.6667 156.408 30.376C156.752 31.0651 157.218 31.6021 157.806 31.9872C158.414 32.3723 159.113 32.5648 159.904 32.5648ZM172.501 36V19.9184H176.635L176.757 23.2016L175.905 23.5664C176.128 22.8368 176.524 22.1781 177.091 21.5904C177.679 20.9824 178.378 20.496 179.189 20.1312C179.999 19.7664 180.85 19.584 181.742 19.584C182.958 19.584 183.972 19.8272 184.782 20.3136C185.613 20.8 186.231 21.5397 186.637 22.5328C187.062 23.5056 187.275 24.7115 187.275 26.1504V36H182.958V26.4848C182.958 25.7552 182.857 25.1472 182.654 24.6608C182.452 24.1744 182.137 23.8197 181.712 23.5968C181.306 23.3536 180.8 23.2523 180.192 23.2928C179.705 23.2928 179.249 23.3739 178.824 23.536C178.418 23.6779 178.064 23.8907 177.76 24.1744C177.476 24.4581 177.243 24.7824 177.061 25.1472C176.898 25.512 176.817 25.9072 176.817 26.3328V36H174.689C174.223 36 173.808 36 173.443 36C173.078 36 172.764 36 172.501 36Z" fill="#222222"/>
<circle cx="67" cy="9.8" r="3.8" fill="#45CB85"/>
</svg>
